<?xml version="1.0" standalone="no"?>
<!DOCTYPE svg PUBLIC "-//W3C//DTD SVG 1.1//EN" "http://www.w3.org/Graphics/SVG/1.1/DTD/svg11.dtd">
<svg xmlns="http://www.w3.org/2000/svg" xmlns:xlink="http://www.w3.org/1999/xlink" width="375" zoomAndPan="magnify" viewBox="0 0 375 374.999991" height="375" preserveAspectRatio="xMidYMid meet" version="1.0"><defs><g/><clipPath id="id1"><path d="M 119.308594 140 L 188 140 L 188 200 L 119.308594 200 Z M 119.308594 140 " clip-rule="nonzero"/></clipPath><clipPath id="id2"><path d="M 187 108.519531 L 255.808594 108.519531 L 255.808594 169 L 187 169 Z M 187 108.519531 " clip-rule="nonzero"/></clipPath></defs><g clip-path="url(#id1)"><path fill="rgb(2.349854%, 32.159424%, 91.369629%)" d="M 165.269531 182.492188 L 165.269531 190.777344 L 127.644531 173.351562 L 127.644531 166.628906 L 165.269531 149.203125 L 165.269531 157.488281 L 136.816406 169.910156 L 136.816406 170.066406 Z M 187.617188 140 L 124.691406 140 C 121.722656 140 119.3125 142.402344 119.3125 145.363281 L 119.3125 194.617188 C 119.3125 197.578125 121.722656 199.980469 124.691406 199.980469 L 170.148438 199.980469 L 187.617188 140 " fill-opacity="1" fill-rule="nonzero"/></g><g clip-path="url(#id2)"><path fill="rgb(21.958923%, 71.369934%, 100%)" d="M 247.488281 142.132812 L 209.863281 159.324219 L 209.863281 151.039062 L 238.945312 138.613281 L 238.945312 138.457031 L 209.863281 126.035156 L 209.863281 117.75 L 247.488281 134.941406 Z M 205.085938 108.546875 L 187.617188 168.527344 L 250.4375 168.527344 C 253.410156 168.527344 255.816406 166.125 255.816406 163.164062 L 255.816406 113.910156 C 255.816406 110.949219 253.410156 108.546875 250.4375 108.546875 L 205.085938 108.546875 " fill-opacity="1" fill-rule="nonzero"/></g><g fill="rgb(0%, 0%, 0%)" fill-opacity="1"><g transform="translate(103.933156, 237.534829)"><g><path d="M 14.171875 -21 L 2.660156 -21 L 2.660156 -16.902344 L 9.554688 -16.902344 L 9.554688 -5.984375 C 9.554688 -4.722656 8.644531 -3.78125 7.488281 -3.78125 C 6.4375 -3.78125 5.632812 -4.550781 5.460938 -5.632812 L 0.910156 -4.304688 C 1.363281 -1.46875 3.640625 0.28125 7.488281 0.28125 C 11.792969 0.28125 14.171875 -1.925781 14.171875 -5.390625 Z M 14.171875 -21 "/></g></g></g><g fill="rgb(0%, 0%, 0%)" fill-opacity="1"><g transform="translate(121.08795, 237.534829)"><g><path d="M 14.910156 0 L 19.84375 0 L 12.285156 -21 L 7.105469 -21 L -0.453125 0 L 4.480469 0 L 5.773438 -3.953125 L 13.613281 -3.953125 Z M 7 -7.804688 L 9.695312 -16.132812 L 12.390625 -7.804688 Z M 7 -7.804688 "/></g></g></g><g fill="rgb(0%, 0%, 0%)" fill-opacity="1"><g transform="translate(141.707271, 237.534829)"><g><path d="M 16.902344 -21 L 1.679688 -21 L 1.679688 -16.902344 L 9.730469 -16.902344 L 0.804688 0 L 16.902344 0 L 16.902344 -4.09375 L 8.050781 -4.09375 Z M 16.902344 -21 "/></g></g></g><g fill="rgb(0%, 0%, 0%)" fill-opacity="1"><g transform="translate(160.856792, 237.534829)"><g><path d="M 2.238281 0 L 6.859375 0 L 6.859375 -21 L 2.238281 -21 Z M 2.238281 0 "/></g></g></g><g fill="rgb(0%, 0%, 0%)" fill-opacity="1"><g transform="translate(171.152548, 237.534829)"><g><path d="M 14.875 -16.9375 L 14.875 -21 L 2.238281 -21 L 2.238281 0 L 14.875 0 L 14.875 -4.058594 L 6.859375 -4.058594 L 6.859375 -8.46875 L 13.71875 -8.46875 L 13.71875 -12.527344 L 6.859375 -12.527344 L 6.859375 -16.9375 Z M 14.875 -16.9375 "/></g></g></g><g fill="rgb(0%, 0%, 0%)" fill-opacity="1"><g transform="translate(188.6923, 237.534829)"><g><path d="M 6.683594 -4.09375 L 6.683594 -21 L 2.066406 -21 L 2.066406 0 L 13.648438 0 L 13.648438 -4.09375 Z M 6.683594 -4.09375 "/></g></g></g><g fill="rgb(0%, 0%, 0%)" fill-opacity="1"><g transform="translate(203.642397, 237.534829)"><g/></g></g><g fill="rgb(0%, 0%, 0%)" fill-opacity="1"><g transform="translate(213.27324, 237.534829)"><g><path d="M 2.238281 0 L 6.859375 0 L 6.859375 -21 L 2.238281 -21 Z M 2.238281 0 "/></g></g></g><g fill="rgb(0%, 0%, 0%)" fill-opacity="1"><g transform="translate(223.568997, 237.534829)"><g><path d="M 8.539062 0.28125 C 12.457031 0.28125 15.785156 -2.03125 15.785156 -5.949219 C 15.785156 -13.71875 6.125 -11.792969 6.125 -15.433594 C 6.125 -16.625 7.035156 -17.183594 8.152344 -17.183594 C 9.34375 -17.183594 10.535156 -16.519531 11.582031 -15.363281 L 14.664062 -18.304688 C 13.125 -20.089844 10.777344 -21.277344 8.1875 -21.277344 C 4.863281 -21.277344 1.46875 -19.285156 1.46875 -15.082031 C 1.46875 -7.945312 11.164062 -9.660156 11.164062 -5.984375 C 11.164062 -4.828125 10.183594 -4.058594 8.574219 -4.058594 C 6.648438 -4.058594 5.144531 -5.144531 4.375 -6.789062 L 0.558594 -4.410156 C 1.925781 -1.785156 4.863281 0.28125 8.539062 0.28125 Z M 8.539062 0.28125 "/></g></g></g><g fill="rgb(0%, 0%, 0%)" fill-opacity="1"><g transform="translate(241.388706, 237.534829)"><g><path d="M 14.910156 0 L 19.84375 0 L 12.285156 -21 L 7.105469 -21 L -0.453125 0 L 4.480469 0 L 5.773438 -3.953125 L 13.613281 -3.953125 Z M 7 -7.804688 L 9.695312 -16.132812 L 12.390625 -7.804688 Z M 7 -7.804688 "/></g></g></g><g fill="rgb(0%, 0%, 0%)" fill-opacity="1"><g transform="translate(262.008028, 237.534829)"><g><path d="M 2.800781 -22.78125 L 5.738281 -22.78125 L 10.113281 -27.996094 L 5.878906 -27.996094 Z M 2.238281 0 L 6.859375 0 L 6.859375 -21 L 2.238281 -21 Z M 2.238281 0 "/></g></g></g><g fill="rgb(0%, 0%, 0%)" fill-opacity="1"><g transform="translate(46.432388, 265.443263)"><g><path d="M 4.90625 0.109375 C 6.488281 0.109375 7.863281 -0.757812 8.589844 -2.035156 L 7.832031 -2.460938 C 7.269531 -1.441406 6.171875 -0.769531 4.90625 -0.769531 C 3.050781 -0.769531 1.554688 -2.253906 1.554688 -4.125 C 1.554688 -5.992188 3.050781 -7.476562 4.90625 -7.476562 C 6.171875 -7.476562 7.269531 -6.804688 7.832031 -5.785156 L 8.589844 -6.210938 C 7.863281 -7.492188 6.488281 -8.355469 4.90625 -8.355469 C 2.570312 -8.355469 0.671875 -6.460938 0.671875 -4.125 C 0.671875 -1.785156 2.570312 0.109375 4.90625 0.109375 Z M 4.90625 0.109375 "/></g></g></g><g fill="rgb(0%, 0%, 0%)" fill-opacity="1"><g transform="translate(59.158555, 265.443263)"><g><path d="M 4.90625 0.109375 C 7.257812 0.109375 9.140625 -1.785156 9.140625 -4.125 C 9.140625 -6.460938 7.257812 -8.355469 4.90625 -8.355469 C 2.570312 -8.355469 0.671875 -6.460938 0.671875 -4.125 C 0.671875 -1.785156 2.570312 0.109375 4.90625 0.109375 Z M 4.90625 -0.769531 C 3.050781 -0.769531 1.554688 -2.253906 1.554688 -4.125 C 1.554688 -5.992188 3.050781 -7.476562 4.90625 -7.476562 C 6.777344 -7.476562 8.261719 -5.992188 8.261719 -4.125 C 8.261719 -2.253906 6.777344 -0.769531 4.90625 -0.769531 Z M 4.90625 -0.769531 "/></g></g></g><g fill="rgb(0%, 0%, 0%)" fill-opacity="1"><g transform="translate(72.66791, 265.443263)"><g><path d="M 8.273438 -8.246094 L 5.097656 -1.058594 L 1.9375 -8.246094 L 1.003906 -8.246094 L 1.003906 0 L 1.882812 0 L 1.882812 -6.515625 L 4.726562 0 L 5.457031 0 L 8.328125 -6.488281 L 8.328125 0 L 9.195312 0 L 9.195312 -8.246094 Z M 8.273438 -8.246094 "/></g></g></g><g fill="rgb(0%, 0%, 0%)" fill-opacity="1"><g transform="translate(86.548247, 265.443263)"><g><path d="M 3.957031 -8.246094 L 1.003906 -8.246094 L 1.003906 0 L 1.882812 0 L 1.882812 -3.667969 L 3.957031 -3.667969 C 5.238281 -3.667969 6.253906 -4.671875 6.253906 -5.949219 C 6.253906 -7.214844 5.238281 -8.246094 3.957031 -8.246094 Z M 3.875 -4.507812 L 1.882812 -4.507812 L 1.882812 -7.394531 L 3.875 -7.394531 C 4.699219 -7.394531 5.375 -6.816406 5.375 -5.9375 C 5.375 -5.03125 4.699219 -4.507812 3.875 -4.507812 Z M 3.875 -4.507812 "/></g></g></g><g fill="rgb(0%, 0%, 0%)" fill-opacity="1"><g transform="translate(96.71872, 265.443263)"><g><path d="M 4.054688 0.109375 C 5.855469 0.109375 7.160156 -1.085938 7.160156 -2.707031 L 7.160156 -8.246094 L 6.28125 -8.246094 L 6.28125 -2.84375 C 6.28125 -1.648438 5.332031 -0.769531 4.054688 -0.769531 C 2.777344 -0.769531 1.839844 -1.648438 1.839844 -2.84375 L 1.839844 -8.246094 L 0.960938 -8.246094 L 0.960938 -2.707031 C 0.960938 -1.085938 2.269531 0.109375 4.054688 0.109375 Z M 4.054688 0.109375 "/></g></g></g><g fill="rgb(0%, 0%, 0%)" fill-opacity="1"><g transform="translate(108.524289, 265.443263)"><g><path d="M 5.566406 -8.246094 L 0.125 -8.246094 L 0.125 -7.367188 L 2.40625 -7.367188 L 2.40625 0 L 3.285156 0 L 3.285156 -7.367188 L 5.566406 -7.367188 Z M 5.566406 -8.246094 "/></g></g></g><g fill="rgb(0%, 0%, 0%)" fill-opacity="1"><g transform="translate(117.89783, 265.443263)"><g><path d="M 5.578125 -7.394531 L 5.578125 -8.246094 L 1.070312 -8.246094 L 1.070312 0 L 5.578125 0 L 5.578125 -0.851562 L 1.953125 -0.851562 L 1.953125 -3.695312 L 5.113281 -3.695312 L 5.113281 -4.550781 L 1.953125 -4.550781 L 1.953125 -7.394531 Z M 5.578125 -7.394531 "/></g></g></g><g fill="rgb(0%, 0%, 0%)" fill-opacity="1"><g transform="translate(127.98587, 265.443263)"><g><path d="M 4.34375 -3.765625 C 5.429688 -3.917969 6.253906 -4.824219 6.253906 -5.9375 C 6.253906 -7.230469 5.222656 -8.246094 3.957031 -8.246094 L 1.003906 -8.246094 L 1.003906 0 L 1.882812 0 L 1.882812 -3.722656 L 3.4375 -3.722656 L 5.773438 0 L 6.777344 0 Z M 1.882812 -4.5625 L 1.882812 -7.367188 L 3.902344 -7.367188 C 4.726562 -7.367188 5.375 -6.789062 5.375 -5.964844 C 5.375 -5.125 4.742188 -4.5625 3.902344 -4.5625 Z M 1.882812 -4.5625 "/></g></g></g><g fill="rgb(0%, 0%, 0%)" fill-opacity="1"><g transform="translate(138.568559, 265.443263)"><g/></g></g><g fill="rgb(0%, 0%, 0%)" fill-opacity="1"><g transform="translate(145.565041, 265.443263)"><g><path d="M 3.078125 0.109375 C 4.480469 0.109375 5.621094 -0.726562 5.621094 -2.171875 C 5.621094 -4.976562 1.609375 -4.289062 1.609375 -6.253906 C 1.609375 -7.078125 2.28125 -7.476562 3.050781 -7.476562 C 3.683594 -7.476562 4.207031 -7.214844 4.535156 -6.75 L 5.222656 -7.324219 C 4.769531 -7.902344 3.972656 -8.355469 3.023438 -8.355469 C 1.757812 -8.355469 0.726562 -7.53125 0.726562 -6.183594 C 0.726562 -3.53125 4.742188 -4.191406 4.742188 -2.144531 C 4.742188 -1.265625 4.011719 -0.769531 3.09375 -0.769531 C 2.15625 -0.769531 1.484375 -1.277344 1.195312 -2.035156 L 0.398438 -1.566406 C 0.824219 -0.550781 1.855469 0.109375 3.078125 0.109375 Z M 3.078125 0.109375 "/></g></g></g><g fill="rgb(0%, 0%, 0%)" fill-opacity="1"><g transform="translate(155.268349, 265.443263)"><g><path d="M 6.652344 -8.246094 L 5.566406 -8.246094 L 3.339844 -4.824219 L 1.113281 -8.246094 L 0.015625 -8.246094 L 2.898438 -3.902344 L 2.898438 0 L 3.78125 0 L 3.78125 -3.917969 Z M 6.652344 -8.246094 "/></g></g></g><g fill="rgb(0%, 0%, 0%)" fill-opacity="1"><g transform="translate(165.617446, 265.443263)"><g><path d="M 3.078125 0.109375 C 4.480469 0.109375 5.621094 -0.726562 5.621094 -2.171875 C 5.621094 -4.976562 1.609375 -4.289062 1.609375 -6.253906 C 1.609375 -7.078125 2.28125 -7.476562 3.050781 -7.476562 C 3.683594 -7.476562 4.207031 -7.214844 4.535156 -6.75 L 5.222656 -7.324219 C 4.769531 -7.902344 3.972656 -8.355469 3.023438 -8.355469 C 1.757812 -8.355469 0.726562 -7.53125 0.726562 -6.183594 C 0.726562 -3.53125 4.742188 -4.191406 4.742188 -2.144531 C 4.742188 -1.265625 4.011719 -0.769531 3.09375 -0.769531 C 2.15625 -0.769531 1.484375 -1.277344 1.195312 -2.035156 L 0.398438 -1.566406 C 0.824219 -0.550781 1.855469 0.109375 3.078125 0.109375 Z M 3.078125 0.109375 "/></g></g></g><g fill="rgb(0%, 0%, 0%)" fill-opacity="1"><g transform="translate(175.320754, 265.443263)"><g><path d="M 5.566406 -8.246094 L 0.125 -8.246094 L 0.125 -7.367188 L 2.40625 -7.367188 L 2.40625 0 L 3.285156 0 L 3.285156 -7.367188 L 5.566406 -7.367188 Z M 5.566406 -8.246094 "/></g></g></g><g fill="rgb(0%, 0%, 0%)" fill-opacity="1"><g transform="translate(184.694288, 265.443263)"><g><path d="M 5.578125 -7.394531 L 5.578125 -8.246094 L 1.070312 -8.246094 L 1.070312 0 L 5.578125 0 L 5.578125 -0.851562 L 1.953125 -0.851562 L 1.953125 -3.695312 L 5.113281 -3.695312 L 5.113281 -4.550781 L 1.953125 -4.550781 L 1.953125 -7.394531 Z M 5.578125 -7.394531 "/></g></g></g><g fill="rgb(0%, 0%, 0%)" fill-opacity="1"><g transform="translate(194.782323, 265.443263)"><g><path d="M 8.273438 -8.246094 L 5.097656 -1.058594 L 1.9375 -8.246094 L 1.003906 -8.246094 L 1.003906 0 L 1.882812 0 L 1.882812 -6.515625 L 4.726562 0 L 5.457031 0 L 8.328125 -6.488281 L 8.328125 0 L 9.195312 0 L 9.195312 -8.246094 Z M 8.273438 -8.246094 "/></g></g></g><g fill="rgb(0%, 0%, 0%)" fill-opacity="1"><g transform="translate(208.662656, 265.443263)"><g><path d="M 3.078125 0.109375 C 4.480469 0.109375 5.621094 -0.726562 5.621094 -2.171875 C 5.621094 -4.976562 1.609375 -4.289062 1.609375 -6.253906 C 1.609375 -7.078125 2.28125 -7.476562 3.050781 -7.476562 C 3.683594 -7.476562 4.207031 -7.214844 4.535156 -6.75 L 5.222656 -7.324219 C 4.769531 -7.902344 3.972656 -8.355469 3.023438 -8.355469 C 1.757812 -8.355469 0.726562 -7.53125 0.726562 -6.183594 C 0.726562 -3.53125 4.742188 -4.191406 4.742188 -2.144531 C 4.742188 -1.265625 4.011719 -0.769531 3.09375 -0.769531 C 2.15625 -0.769531 1.484375 -1.277344 1.195312 -2.035156 L 0.398438 -1.566406 C 0.824219 -0.550781 1.855469 0.109375 3.078125 0.109375 Z M 3.078125 0.109375 "/></g></g></g><g fill="rgb(0%, 0%, 0%)" fill-opacity="1"><g transform="translate(218.365963, 265.443263)"><g/></g></g><g fill="rgb(0%, 0%, 0%)" fill-opacity="1"><g transform="translate(225.362445, 265.443263)"><g><path d="M 5.578125 -7.394531 L 5.578125 -8.246094 L 1.070312 -8.246094 L 1.070312 0 L 5.578125 0 L 5.578125 -0.851562 L 1.953125 -0.851562 L 1.953125 -3.695312 L 5.113281 -3.695312 L 5.113281 -4.550781 L 1.953125 -4.550781 L 1.953125 -7.394531 Z M 5.578125 -7.394531 "/></g></g></g><g fill="rgb(0%, 0%, 0%)" fill-opacity="1"><g transform="translate(235.45048, 265.443263)"><g><path d="M 5.578125 -7.394531 L 5.578125 -8.246094 L 1.070312 -8.246094 L 1.070312 0 L 5.578125 0 L 5.578125 -0.851562 L 1.953125 -0.851562 L 1.953125 -3.695312 L 5.113281 -3.695312 L 5.113281 -4.550781 L 1.953125 -4.550781 L 1.953125 -7.394531 Z M 5.578125 -7.394531 "/></g></g></g><g fill="rgb(0%, 0%, 0%)" fill-opacity="1"><g transform="translate(245.538515, 265.443263)"><g><path d="M 6.925781 -8.246094 L 6.925781 -1.46875 L 1.828125 -8.246094 L 1.003906 -8.246094 L 1.003906 0 L 1.882812 0 L 1.882812 -6.777344 L 6.96875 0 L 7.792969 0 L 7.792969 -8.246094 Z M 6.925781 -8.246094 "/></g></g></g><g fill="rgb(0%, 0%, 0%)" fill-opacity="1"><g transform="translate(258.017358, 265.443263)"><g><path d="M 4.933594 -4.371094 L 4.933594 -3.546875 L 8.246094 -3.546875 C 7.984375 -1.953125 6.609375 -0.769531 4.949219 -0.769531 C 3.09375 -0.769531 1.59375 -2.253906 1.59375 -4.125 C 1.59375 -5.992188 3.09375 -7.476562 4.949219 -7.476562 C 6.199219 -7.476562 7.296875 -6.804688 7.863281 -5.785156 L 8.617188 -6.210938 C 7.902344 -7.492188 6.527344 -8.355469 4.949219 -8.355469 C 2.597656 -8.355469 0.714844 -6.460938 0.714844 -4.125 C 0.714844 -1.785156 2.597656 0.109375 4.949219 0.109375 C 7.285156 0.109375 9.179688 -1.785156 9.179688 -4.125 L 9.179688 -4.371094 Z M 4.933594 -4.371094 "/></g></g></g><g fill="rgb(0%, 0%, 0%)" fill-opacity="1"><g transform="translate(271.581673, 265.443263)"><g><path d="M 1.070312 0 L 1.953125 0 L 1.953125 -8.246094 L 1.070312 -8.246094 Z M 1.070312 0 "/></g></g></g><g fill="rgb(0%, 0%, 0%)" fill-opacity="1"><g transform="translate(278.275871, 265.443263)"><g><path d="M 6.925781 -8.246094 L 6.925781 -1.46875 L 1.828125 -8.246094 L 1.003906 -8.246094 L 1.003906 0 L 1.882812 0 L 1.882812 -6.777344 L 6.96875 0 L 7.792969 0 L 7.792969 -8.246094 Z M 6.925781 -8.246094 "/></g></g></g><g fill="rgb(0%, 0%, 0%)" fill-opacity="1"><g transform="translate(290.754714, 265.443263)"><g><path d="M 5.578125 -7.394531 L 5.578125 -8.246094 L 1.070312 -8.246094 L 1.070312 0 L 5.578125 0 L 5.578125 -0.851562 L 1.953125 -0.851562 L 1.953125 -3.695312 L 5.113281 -3.695312 L 5.113281 -4.550781 L 1.953125 -4.550781 L 1.953125 -7.394531 Z M 5.578125 -7.394531 "/></g></g></g><g fill="rgb(0%, 0%, 0%)" fill-opacity="1"><g transform="translate(300.842749, 265.443263)"><g><path d="M 5.578125 -7.394531 L 5.578125 -8.246094 L 1.070312 -8.246094 L 1.070312 0 L 5.578125 0 L 5.578125 -0.851562 L 1.953125 -0.851562 L 1.953125 -3.695312 L 5.113281 -3.695312 L 5.113281 -4.550781 L 1.953125 -4.550781 L 1.953125 -7.394531 Z M 5.578125 -7.394531 "/></g></g></g><g fill="rgb(0%, 0%, 0%)" fill-opacity="1"><g transform="translate(310.930784, 265.443263)"><g><path d="M 4.34375 -3.765625 C 5.429688 -3.917969 6.253906 -4.824219 6.253906 -5.9375 C 6.253906 -7.230469 5.222656 -8.246094 3.957031 -8.246094 L 1.003906 -8.246094 L 1.003906 0 L 1.882812 0 L 1.882812 -3.722656 L 3.4375 -3.722656 L 5.773438 0 L 6.777344 0 Z M 1.882812 -4.5625 L 1.882812 -7.367188 L 3.902344 -7.367188 C 4.726562 -7.367188 5.375 -6.789062 5.375 -5.964844 C 5.375 -5.125 4.742188 -4.5625 3.902344 -4.5625 Z M 1.882812 -4.5625 "/></g></g></g></svg>